<?xml version="1.0" encoding="UTF-8" standalone="no"?><svg xmlns="http://www.w3.org/2000/svg" xmlns:xlink="http://www.w3.org/1999/xlink" contentScriptType="application/ecmascript" contentStyleType="text/css" height="1176px" preserveAspectRatio="none" style="width:904px;height:1176px;" version="1.1" viewBox="0 0 904 1176" width="904px" zoomAndPan="magnify"><defs><filter height="300%" id="feka73f99b0vr" width="300%" x="-1" y="-1"><feGaussianBlur result="blurOut" stdDeviation="2.0"/><feColorMatrix in="blurOut" result="blurOut2" type="matrix" values="0 0 0 0 0 0 0 0 0 0 0 0 0 0 0 0 0 0 .4 0"/><feOffset dx="4.0" dy="4.0" in="blurOut2" result="blurOut3"/><feBlend in="SourceGraphic" in2="blurOut3" mode="normal"/></filter></defs><g><!--cluster app.common--><polygon fill="#FFFFFF" filter="url(#feka73f99b0vr)" points="14,16,121,16,128,38.2969,735,38.2969,735,1164,14,1164,14,16" style="stroke: #000000; stroke-width: 1.5;"/><line style="stroke: #000000; stroke-width: 1.5;" x1="14" x2="128" y1="38.2969" y2="38.2969"/><text fill="#000000" font-family="sans-serif" font-size="14" font-weight="bold" lengthAdjust="spacingAndGlyphs" textLength="101" x="18" y="30.9951">app.common</text><!--cluster app.window--><polygon fill="#FFFFFF" filter="url(#feka73f99b0vr)" points="748,811,850,811,857,833.2969,882,833.2969,882,894,748,894,748,811" style="stroke: #000000; stroke-width: 1.5;"/><line style="stroke: #000000; stroke-width: 1.5;" x1="748" x2="857" y1="833.2969" y2="833.2969"/><text fill="#000000" font-family="sans-serif" font-size="14" font-weight="bold" lengthAdjust="spacingAndGlyphs" textLength="96" x="752" y="825.9951">app.window</text><!--class Entrypoint--><rect fill="#FEFECE" filter="url(#feka73f99b0vr)" height="73.6094" id="Entrypoint" style="stroke: #A80036; stroke-width: 1.5;" width="172" x="241" y="43"/><ellipse cx="290.75" cy="59" fill="#ADD1B2" rx="11" ry="11" style="stroke: #A80036; stroke-width: 1.0;"/><path d="M293.7188,64.6406 Q293.1406,64.9375 292.5,65.0859 Q291.8594,65.2344 291.1563,65.2344 Q288.6563,65.2344 287.3359,63.5859 Q286.0156,61.9375 286.0156,58.8125 Q286.0156,55.6875 287.3359,54.0313 Q288.6563,52.375 291.1563,52.375 Q291.8594,52.375 292.5078,52.5313 Q293.1563,52.6875 293.7188,52.9844 L293.7188,55.7031 Q293.0938,55.125 292.5,54.8516 Q291.9063,54.5781 291.2813,54.5781 Q289.9375,54.5781 289.25,55.6484 Q288.5625,56.7188 288.5625,58.8125 Q288.5625,60.9063 289.25,61.9766 Q289.9375,63.0469 291.2813,63.0469 Q291.9063,63.0469 292.5,62.7734 Q293.0938,62.5 293.7188,61.9219 L293.7188,64.6406 Z "/><text fill="#000000" font-family="sans-serif" font-size="12" lengthAdjust="spacingAndGlyphs" textLength="64" x="311.25" y="63.1543">Entrypoint</text><line style="stroke: #A80036; stroke-width: 1.5;" x1="242" x2="412" y1="75" y2="75"/><rect fill="none" height="6" style="stroke: #C82930; stroke-width: 1.0;" width="6" x="249" y="83.9023"/><text fill="#000000" font-family="sans-serif" font-size="11" lengthAdjust="spacingAndGlyphs" text-decoration="underline" textLength="146" x="261" y="89.2104">manager: WorkerManager</text><line style="stroke: #000000; stroke-width: 1.0;" x1="261" x2="407" y1="91.2104" y2="91.2104"/><line style="stroke: #A80036; stroke-width: 1.5;" x1="242" x2="412" y1="95.8047" y2="95.8047"/><ellipse cx="252" cy="107.707" fill="#84BE84" rx="3" ry="3" style="stroke: #038048; stroke-width: 1.0;"/><text fill="#000000" font-family="sans-serif" font-size="11" lengthAdjust="spacingAndGlyphs" text-decoration="underline" textLength="134" x="261" y="110.0151">void Main(args: string[])</text><line style="stroke: #000000; stroke-width: 1.0;" x1="261" x2="395" y1="112.0151" y2="112.0151"/><!--class WorkerTypeRegister--><rect fill="#FEFECE" filter="url(#feka73f99b0vr)" height="66.7422" id="WorkerTypeRegister" style="stroke: #A80036; stroke-width: 1.5;" width="280" x="22" y="297.5"/><ellipse cx="95.25" cy="316.4688" fill="#ADD1B2" rx="11" ry="11" style="stroke: #A80036; stroke-width: 1.0;"/><path d="M98.2188,322.1094 Q97.6406,322.4063 97,322.5547 Q96.3594,322.7031 95.6563,322.7031 Q93.1563,322.7031 91.8359,321.0547 Q90.5156,319.4063 90.5156,316.2813 Q90.5156,313.1563 91.8359,311.5 Q93.1563,309.8438 95.6563,309.8438 Q96.3594,309.8438 97.0078,310 Q97.6563,310.1563 98.2188,310.4531 L98.2188,313.1719 Q97.5938,312.5938 97,312.3203 Q96.4063,312.0469 95.7813,312.0469 Q94.4375,312.0469 93.75,313.1172 Q93.0625,314.1875 93.0625,316.2813 Q93.0625,318.375 93.75,319.4453 Q94.4375,320.5156 95.7813,320.5156 Q96.4063,320.5156 97,320.2422 Q97.5938,319.9688 98.2188,319.3906 L98.2188,322.1094 Z "/><text fill="#000000" font-family="sans-serif" font-size="12" font-style="italic" lengthAdjust="spacingAndGlyphs" textLength="47" x="154.75" y="313.6387">«static»</text><text fill="#000000" font-family="sans-serif" font-size="12" lengthAdjust="spacingAndGlyphs" textLength="125" x="115.75" y="327.6074">WorkerTypeRegister</text><line style="stroke: #A80036; stroke-width: 1.5;" x1="23" x2="301" y1="335.4375" y2="335.4375"/><line style="stroke: #A80036; stroke-width: 1.5;" x1="23" x2="301" y1="343.4375" y2="343.4375"/><ellipse cx="33" cy="355.3398" fill="#84BE84" rx="3" ry="3" style="stroke: #038048; stroke-width: 1.0;"/><text fill="#000000" font-family="sans-serif" font-size="11" lengthAdjust="spacingAndGlyphs" textLength="254" x="42" y="357.6479">int Register(register: Directory&lt;Long, Type&gt;)</text><!--class WorkerManager--><rect fill="#FEFECE" filter="url(#feka73f99b0vr)" height="150.4375" id="WorkerManager" style="stroke: #A80036; stroke-width: 1.5;" width="389" x="337.5" y="256"/><ellipse cx="478.25" cy="272" fill="#ADD1B2" rx="11" ry="11" style="stroke: #A80036; stroke-width: 1.0;"/><path d="M481.2188,277.6406 Q480.6406,277.9375 480,278.0859 Q479.3594,278.2344 478.6563,278.2344 Q476.1563,278.2344 474.8359,276.5859 Q473.5156,274.9375 473.5156,271.8125 Q473.5156,268.6875 474.8359,267.0313 Q476.1563,265.375 478.6563,265.375 Q479.3594,265.375 480.0078,265.5313 Q480.6563,265.6875 481.2188,265.9844 L481.2188,268.7031 Q480.5938,268.125 480,267.8516 Q479.4063,267.5781 478.7813,267.5781 Q477.4375,267.5781 476.75,268.6484 Q476.0625,269.7188 476.0625,271.8125 Q476.0625,273.9063 476.75,274.9766 Q477.4375,276.0469 478.7813,276.0469 Q479.4063,276.0469 480,275.7734 Q480.5938,275.5 481.2188,274.9219 L481.2188,277.6406 Z "/><text fill="#000000" font-family="sans-serif" font-size="12" lengthAdjust="spacingAndGlyphs" textLength="99" x="498.75" y="276.1543">WorkerManager</text><line style="stroke: #A80036; stroke-width: 1.5;" x1="338.5" x2="725.5" y1="288" y2="288"/><rect fill="none" height="6" style="stroke: #C82930; stroke-width: 1.0;" width="6" x="345.5" y="296.9023"/><text fill="#000000" font-family="sans-serif" font-size="11" lengthAdjust="spacingAndGlyphs" textLength="175" x="357.5" y="302.2104">variety: Directory&lt;Long, Type&gt;</text><rect fill="none" height="6" style="stroke: #C82930; stroke-width: 1.0;" width="6" x="345.5" y="309.707"/><text fill="#000000" font-family="sans-serif" font-size="11" lengthAdjust="spacingAndGlyphs" textLength="121" x="357.5" y="315.0151">storage: String {File}</text><rect fill="none" height="6" style="stroke: #C82930; stroke-width: 1.0;" width="6" x="345.5" y="322.5117"/><text fill="#000000" font-family="sans-serif" font-size="11" lengthAdjust="spacingAndGlyphs" textLength="194" x="357.5" y="327.8198">workers: Directory&lt;Guid, Worker&gt;</text><line style="stroke: #A80036; stroke-width: 1.5;" x1="338.5" x2="725.5" y1="334.4141" y2="334.4141"/><ellipse cx="348.5" cy="346.3164" fill="#84BE84" rx="3" ry="3" style="stroke: #038048; stroke-width: 1.0;"/><text fill="#000000" font-family="sans-serif" font-size="11" lengthAdjust="spacingAndGlyphs" textLength="363" x="357.5" y="348.6245">WorkerManager(variety: Directory&lt;Long, Type&gt;, storage: String)</text><text fill="#000000" font-family="sans-serif" font-size="11" lengthAdjust="spacingAndGlyphs" textLength="0" x="360.5" y="361.4292"/><ellipse cx="348.5" cy="371.9258" fill="#84BE84" rx="3" ry="3" style="stroke: #038048; stroke-width: 1.0;"/><text fill="#000000" font-family="sans-serif" font-size="11" lengthAdjust="spacingAndGlyphs" textLength="109" x="357.5" y="374.2339">bool StartWorkers()</text><ellipse cx="348.5" cy="384.7305" fill="#84BE84" rx="3" ry="3" style="stroke: #038048; stroke-width: 1.0;"/><text fill="#000000" font-family="sans-serif" font-size="11" lengthAdjust="spacingAndGlyphs" textLength="111" x="357.5" y="387.0386">bool AbortWorkers()</text><ellipse cx="348.5" cy="397.5352" fill="#84BE84" rx="3" ry="3" style="stroke: #038048; stroke-width: 1.0;"/><text fill="#000000" font-family="sans-serif" font-size="11" lengthAdjust="spacingAndGlyphs" textLength="170" x="357.5" y="399.8433">Worker CreateWorker(id: Guid)</text><!--class Worker--><rect fill="#FEFECE" filter="url(#feka73f99b0vr)" height="124.8281" id="Worker" style="stroke: #A80036; stroke-width: 1.5;" width="309" x="359.5" y="545"/><ellipse cx="488.25" cy="561" fill="#A9DCDF" rx="11" ry="11" style="stroke: #A80036; stroke-width: 1.0;"/><path d="M488.3594,556.3438 L487.2031,561.4219 L489.5313,561.4219 L488.3594,556.3438 Z M486.875,554.1094 L489.8594,554.1094 L493.2188,566.5 L490.7656,566.5 L490,563.4375 L486.7188,563.4375 L485.9688,566.5 L483.5313,566.5 L486.875,554.1094 Z "/><text fill="#000000" font-family="sans-serif" font-size="12" font-style="italic" lengthAdjust="spacingAndGlyphs" textLength="43" x="508.75" y="565.1543">Worker</text><line style="stroke: #A80036; stroke-width: 1.5;" x1="360.5" x2="667.5" y1="577" y2="577"/><polygon fill="none" points="370.5,583.9023,374.5,587.9023,370.5,591.9023,366.5,587.9023" style="stroke: #B38D22; stroke-width: 1.0;"/><text fill="#000000" font-family="sans-serif" font-size="11" lengthAdjust="spacingAndGlyphs" textLength="146" x="379.5" y="591.2104">manager: WorkerManager</text><rect fill="none" height="6" style="stroke: #C82930; stroke-width: 1.0;" width="6" x="367.5" y="598.707"/><text fill="#000000" font-family="sans-serif" font-size="11" lengthAdjust="spacingAndGlyphs" textLength="83" x="379.5" y="604.0151">identifier: Guid</text><line style="stroke: #A80036; stroke-width: 1.5;" x1="360.5" x2="667.5" y1="610.6094" y2="610.6094"/><polygon fill="#FFFF44" points="370.5,617.5117,374.5,621.5117,370.5,625.5117,366.5,621.5117" style="stroke: #B38D22; stroke-width: 1.0;"/><text fill="#000000" font-family="sans-serif" font-size="11" lengthAdjust="spacingAndGlyphs" textLength="283" x="379.5" y="624.8198">Worker(identifier: Guid, manager: WorkerManager)</text><text fill="#000000" font-family="sans-serif" font-size="11" lengthAdjust="spacingAndGlyphs" textLength="0" x="382.5" y="637.6245"/><ellipse cx="370.5" cy="648.1211" fill="#84BE84" rx="3" ry="3" style="stroke: #038048; stroke-width: 1.0;"/><text fill="#000000" font-family="sans-serif" font-size="11" font-style="italic" lengthAdjust="spacingAndGlyphs" textLength="173" x="379.5" y="650.4292">bool Start(reader: TextReader)</text><ellipse cx="370.5" cy="660.9258" fill="#84BE84" rx="3" ry="3" style="stroke: #038048; stroke-width: 1.0;"/><text fill="#000000" font-family="sans-serif" font-size="11" font-style="italic" lengthAdjust="spacingAndGlyphs" textLength="166" x="379.5" y="663.2339">bool Abort(writer: TextWriter)</text><!--class BackupWorker--><rect fill="#FEFECE" filter="url(#feka73f99b0vr)" height="137.6328" id="BackupWorker" style="stroke: #A80036; stroke-width: 1.5;" width="519" x="202.5" y="793"/><ellipse cx="412.75" cy="809" fill="#ADD1B2" rx="11" ry="11" style="stroke: #A80036; stroke-width: 1.0;"/><path d="M415.7188,814.6406 Q415.1406,814.9375 414.5,815.0859 Q413.8594,815.2344 413.1563,815.2344 Q410.6563,815.2344 409.3359,813.5859 Q408.0156,811.9375 408.0156,808.8125 Q408.0156,805.6875 409.3359,804.0313 Q410.6563,802.375 413.1563,802.375 Q413.8594,802.375 414.5078,802.5313 Q415.1563,802.6875 415.7188,802.9844 L415.7188,805.7031 Q415.0938,805.125 414.5,804.8516 Q413.9063,804.5781 413.2813,804.5781 Q411.9375,804.5781 411.25,805.6484 Q410.5625,806.7188 410.5625,808.8125 Q410.5625,810.9063 411.25,811.9766 Q411.9375,813.0469 413.2813,813.0469 Q413.9063,813.0469 414.5,812.7734 Q415.0938,812.5 415.7188,811.9219 L415.7188,814.6406 Z "/><text fill="#000000" font-family="sans-serif" font-size="12" lengthAdjust="spacingAndGlyphs" textLength="90" x="433.25" y="813.1543">BackupWorker</text><line style="stroke: #A80036; stroke-width: 1.5;" x1="203.5" x2="720.5" y1="825" y2="825"/><rect fill="none" height="6" style="stroke: #C82930; stroke-width: 1.0;" width="6" x="210.5" y="833.9023"/><text fill="#000000" font-family="sans-serif" font-size="11" lengthAdjust="spacingAndGlyphs" textLength="174" x="222.5" y="839.2104">source: String {File, Directory}</text><rect fill="none" height="6" style="stroke: #C82930; stroke-width: 1.0;" width="6" x="210.5" y="846.707"/><text fill="#000000" font-family="sans-serif" font-size="11" lengthAdjust="spacingAndGlyphs" textLength="169" x="222.5" y="852.0151">target: String {File, Directory}</text><rect fill="none" height="6" style="stroke: #C82930; stroke-width: 1.0;" width="6" x="210.5" y="859.5117"/><text fill="#000000" font-family="sans-serif" font-size="11" lengthAdjust="spacingAndGlyphs" textLength="130" x="222.5" y="864.8198">observer: FileObserver</text><line style="stroke: #A80036; stroke-width: 1.5;" x1="203.5" x2="720.5" y1="871.4141" y2="871.4141"/><ellipse cx="213.5" cy="883.3164" fill="#84BE84" rx="3" ry="3" style="stroke: #038048; stroke-width: 1.0;"/><text fill="#000000" font-family="sans-serif" font-size="11" lengthAdjust="spacingAndGlyphs" textLength="493" x="222.5" y="885.6245">BackupWorker(identifier: Guid, manager: WorkerManager, source: String, target: String)</text><text fill="#000000" font-family="sans-serif" font-size="11" lengthAdjust="spacingAndGlyphs" textLength="0" x="225.5" y="898.4292"/><ellipse cx="213.5" cy="908.9258" fill="#84BE84" rx="3" ry="3" style="stroke: #038048; stroke-width: 1.0;"/><text fill="#000000" font-family="sans-serif" font-size="11" lengthAdjust="spacingAndGlyphs" textLength="168" x="222.5" y="911.2339">bool Start(TextReader reader)</text><ellipse cx="213.5" cy="921.7305" fill="#84BE84" rx="3" ry="3" style="stroke: #038048; stroke-width: 1.0;"/><text fill="#000000" font-family="sans-serif" font-size="11" lengthAdjust="spacingAndGlyphs" textLength="158" x="222.5" y="924.0386">bool Abort(TextWriter writer)</text><!--class FileObserver--><rect fill="#FEFECE" filter="url(#feka73f99b0vr)" height="86.4141" id="FileObserver" style="stroke: #A80036; stroke-width: 1.5;" width="275" x="324.5" y="1070"/><ellipse cx="419.25" cy="1086" fill="#ADD1B2" rx="11" ry="11" style="stroke: #A80036; stroke-width: 1.0;"/><path d="M422.2188,1091.6406 Q421.6406,1091.9375 421,1092.0859 Q420.3594,1092.2344 419.6563,1092.2344 Q417.1563,1092.2344 415.8359,1090.5859 Q414.5156,1088.9375 414.5156,1085.8125 Q414.5156,1082.6875 415.8359,1081.0313 Q417.1563,1079.375 419.6563,1079.375 Q420.3594,1079.375 421.0078,1079.5313 Q421.6563,1079.6875 422.2188,1079.9844 L422.2188,1082.7031 Q421.5938,1082.125 421,1081.8516 Q420.4063,1081.5781 419.7813,1081.5781 Q418.4375,1081.5781 417.75,1082.6484 Q417.0625,1083.7188 417.0625,1085.8125 Q417.0625,1087.9063 417.75,1088.9766 Q418.4375,1090.0469 419.7813,1090.0469 Q420.4063,1090.0469 421,1089.7734 Q421.5938,1089.5 422.2188,1088.9219 L422.2188,1091.6406 Z "/><text fill="#000000" font-family="sans-serif" font-size="12" lengthAdjust="spacingAndGlyphs" textLength="77" x="439.75" y="1090.1543">FileObserver</text><line style="stroke: #A80036; stroke-width: 1.5;" x1="325.5" x2="598.5" y1="1102" y2="1102"/><ellipse cx="335.5" cy="1113.9023" fill="none" rx="3" ry="3" style="stroke: #038048; stroke-width: 1.0;"/><text fill="#000000" font-family="sans-serif" font-size="11" lengthAdjust="spacingAndGlyphs" textLength="164" x="344.5" y="1116.2104">«get» Changes: List&lt;String&gt;</text><rect fill="none" height="6" style="stroke: #C82930; stroke-width: 1.0;" width="6" x="332.5" y="1123.707"/><text fill="#000000" font-family="sans-serif" font-size="11" lengthAdjust="spacingAndGlyphs" textLength="169" x="344.5" y="1129.0151">target: String {File, Directory}</text><line style="stroke: #A80036; stroke-width: 1.5;" x1="325.5" x2="598.5" y1="1135.6094" y2="1135.6094"/><ellipse cx="335.5" cy="1147.5117" fill="#84BE84" rx="3" ry="3" style="stroke: #038048; stroke-width: 1.0;"/><text fill="#000000" font-family="sans-serif" font-size="11" lengthAdjust="spacingAndGlyphs" textLength="249" x="344.5" y="1149.8198">FileObserver(String {File, Directory}: String)</text><!--class UserInterface--><rect fill="#FEFECE" filter="url(#feka73f99b0vr)" height="48" id="UserInterface" style="stroke: #A80036; stroke-width: 1.5;" width="117" x="756.5" y="838"/><ellipse cx="771.5" cy="854" fill="#ADD1B2" rx="11" ry="11" style="stroke: #A80036; stroke-width: 1.0;"/><path d="M774.4688,859.6406 Q773.8906,859.9375 773.25,860.0859 Q772.6094,860.2344 771.9063,860.2344 Q769.4063,860.2344 768.0859,858.5859 Q766.7656,856.9375 766.7656,853.8125 Q766.7656,850.6875 768.0859,849.0313 Q769.4063,847.375 771.9063,847.375 Q772.6094,847.375 773.2578,847.5313 Q773.9063,847.6875 774.4688,847.9844 L774.4688,850.7031 Q773.8438,850.125 773.25,849.8516 Q772.6563,849.5781 772.0313,849.5781 Q770.6875,849.5781 770,850.6484 Q769.3125,851.7188 769.3125,853.8125 Q769.3125,855.9063 770,856.9766 Q770.6875,858.0469 772.0313,858.0469 Q772.6563,858.0469 773.25,857.7734 Q773.8438,857.5 774.4688,856.9219 L774.4688,859.6406 Z "/><text fill="#000000" font-family="sans-serif" font-size="12" lengthAdjust="spacingAndGlyphs" textLength="85" x="785.5" y="858.1543">UserInterface</text><line style="stroke: #A80036; stroke-width: 1.5;" x1="757.5" x2="872.5" y1="870" y2="870"/><line style="stroke: #A80036; stroke-width: 1.5;" x1="757.5" x2="872.5" y1="878" y2="878"/><!--link Worker to BackupWorker--><path d="M497.1274,690.0785 C490.3368,723.3131 482.5949,761.204 476.1104,792.9405 " fill="none" id="Worker-BackupWorker" style="stroke: #A80036; stroke-width: 1.0;"/><polygon fill="none" points="490.3507,688.2775,501.2128,670.0837,504.0673,691.0801,490.3507,688.2775" style="stroke: #A80036; stroke-width: 1.0;"/><!--link Entrypoint to WorkerTypeRegister--><path d="M296.6936,117.3728 C282.5783,135.3289 265.8781,157.3833 252,178 C225.1542,217.8812 197.6063,265.9719 180.1808,297.4573 " fill="none" id="Entrypoint-WorkerTypeRegister" style="stroke: #A80036; stroke-width: 1.0;"/><text fill="#000000" font-family="sans-serif" font-size="13" lengthAdjust="spacingAndGlyphs" textLength="160" x="253" y="191.0669">registers worker varieties</text><polygon fill="#000000" points="328.5,200.1328,331.5,206.1328,334.5,200.1328,328.5,200.1328" style="stroke: #000000; stroke-width: 1.0;"/><text fill="#000000" font-family="sans-serif" font-size="13" lengthAdjust="spacingAndGlyphs" textLength="8" x="283.226" y="136.633">1</text><text fill="#000000" font-family="sans-serif" font-size="13" lengthAdjust="spacingAndGlyphs" textLength="8" x="174.9726" y="286.4824">1</text><!--link Entrypoint to WorkerManager--><path d="M370.6942,117.0285 C390.1812,134.5545 412.7958,156.3556 431,178 C451.1794,201.993 470.7826,230.1734 487.2656,255.7669 " fill="none" id="Entrypoint-WorkerManager" style="stroke: #A80036; stroke-width: 1.0;"/><text fill="#000000" font-family="sans-serif" font-size="13" lengthAdjust="spacingAndGlyphs" textLength="221" x="445" y="191.0669">starts with varieties and data input</text><polygon fill="#000000" points="551,200.1328,554,206.1328,557,200.1328,551,200.1328" style="stroke: #000000; stroke-width: 1.0;"/><text fill="#000000" font-family="sans-serif" font-size="13" lengthAdjust="spacingAndGlyphs" textLength="8" x="369.5166" y="136.7937">1</text><text fill="#000000" font-family="sans-serif" font-size="13" lengthAdjust="spacingAndGlyphs" textLength="8" x="474.6206" y="244.9338">1</text><!--link WorkerManager to Worker--><path d="M527.1052,406.1896 C524.2736,449.6868 520.7519,503.7834 518.0725,544.9414 " fill="none" id="WorkerManager-Worker" style="stroke: #A80036; stroke-width: 1.0;"/><text fill="#000000" font-family="sans-serif" font-size="13" lengthAdjust="spacingAndGlyphs" textLength="60" x="524" y="480.0669">manages</text><polygon fill="#000000" points="549.5,489.1328,552.5,495.1328,555.5,489.1328,549.5,489.1328" style="stroke: #000000; stroke-width: 1.0;"/><text fill="#000000" font-family="sans-serif" font-size="13" lengthAdjust="spacingAndGlyphs" textLength="8" x="518.2296" y="426.3813">1</text><text fill="#000000" font-family="sans-serif" font-size="13" lengthAdjust="spacingAndGlyphs" textLength="8" x="510.0809" y="533.9254">n</text><!--link BackupWorker to FileObserver--><path d="M462,931.2513 C462,975.6539 462,1031.9009 462,1069.9742 " fill="none" id="BackupWorker-FileObserver" style="stroke: #A80036; stroke-width: 1.0;"/><text fill="#000000" font-family="sans-serif" font-size="13" lengthAdjust="spacingAndGlyphs" textLength="119" x="463" y="1005.0669">keeps track of files</text><polygon fill="#000000" points="518,1014.1328,521,1020.1328,524,1014.1328,518,1014.1328" style="stroke: #000000; stroke-width: 1.0;"/><text fill="#000000" font-family="sans-serif" font-size="13" lengthAdjust="spacingAndGlyphs" textLength="8" x="453.6188" y="950.6574">1</text><text fill="#000000" font-family="sans-serif" font-size="13" lengthAdjust="spacingAndGlyphs" textLength="8" x="453.3625" y="1058.9661">1</text><!--link WorkerManager to UserInterface--><path d="M726.639,384.804 C760.4471,405.9306 785,435.1601 785,475.5 C785,475.5 785,475.5 785,731.5 C785,769.3929 797.1623,811.9377 805.999,837.8483 " fill="none" id="WorkerManager-UserInterface" style="stroke: #A80036; stroke-width: 1.0;"/><text fill="#000000" font-family="sans-serif" font-size="13" lengthAdjust="spacingAndGlyphs" textLength="49" x="786" y="612.0669">storage</text><path d="M777.9289,514.5711 A10,10 0 0 0 792.0711 514.5711" fill="#FFFFFF" style="stroke: #A80036; stroke-width: 1.5;"/><ellipse cx="785" cy="507.5" fill="#FFFFFF" rx="6" ry="6" style="stroke: #A80036; stroke-width: 1.5;"/><!--
@startuml Classes
top to bottom direction


package app.common {
    class Entrypoint {
        {static} -manager: WorkerManager
        {static} +void Main(args: string[])
    }

    class WorkerTypeRegister <<static>> {
        +int Register(register: Directory<Long, Type>)
    }

    class WorkerManager {
        -variety: Directory<Long, Type>
        -storage: String {File}
        -workers: Directory<Guid, Worker>

        +WorkerManager(variety: Directory<Long, Type>, storage: String)

        +bool StartWorkers()
        +bool AbortWorkers()
        +Worker CreateWorker(id: Guid)
    }

    abstract class Worker {
        #manager: WorkerManager
        -identifier: Guid

        #Worker(identifier: Guid, manager: WorkerManager)

        {abstract} +bool Start(reader: TextReader)
        {abstract} +bool Abort(writer: TextWriter)
    }

    class BackupWorker extends Worker {
        -source: String {File, Directory}
        -target: String {File, Directory}
        -observer: FileObserver

        +BackupWorker(identifier: Guid, manager: WorkerManager, source: String, target: String)

        +bool Start(TextReader reader)
        +bool Abort(TextWriter writer)
    }

    class FileObserver {
        +<<get>> Changes: List<String>
        -target: String {File, Directory}

        +FileObserver(String {File, Directory}: String)
    }
}

package app.window {
    class UserInterface {
    }
}

Entrypoint "1" - - "1" WorkerTypeRegister :  registers worker varieties >
Entrypoint "1" - - "1" WorkerManager : starts with varieties and data input >
WorkerManager "1" - - "n" Worker : manages >
BackupWorker "1" - - "1" FileObserver : keeps track of files >

WorkerManager - - -0)- - UserInterface : storage

@enduml

PlantUML version 1.2019.03(Sun Mar 10 12:04:44 CET 2019)
(GPL source distribution)
Java Runtime: OpenJDK Runtime Environment
JVM: OpenJDK 64-Bit Server VM
Java Version: 1.8.0_212-b01
Operating System: Linux
OS Version: 5.0.9-2-MANJARO
Default Encoding: UTF-8
Language: en
Country: US
--></g></svg>