<?xml version="1.0" encoding="UTF-8" standalone="no"?><svg xmlns="http://www.w3.org/2000/svg" xmlns:xlink="http://www.w3.org/1999/xlink" contentScriptType="application/ecmascript" contentStyleType="text/css" height="1002px" preserveAspectRatio="none" style="width:852px;height:1002px;" version="1.1" viewBox="0 0 852 1002" width="852px" zoomAndPan="magnify"><defs><filter height="300%" id="f1owk82w75enh7" width="300%" x="-1" y="-1"><feGaussianBlur result="blurOut" stdDeviation="2.0"/><feColorMatrix in="blurOut" result="blurOut2" type="matrix" values="0 0 0 0 0 0 0 0 0 0 0 0 0 0 0 0 0 0 .4 0"/><feOffset dx="4.0" dy="4.0" in="blurOut2" result="blurOut3"/><feBlend in="SourceGraphic" in2="blurOut3" mode="normal"/></filter></defs><g><!--cluster app.common--><polygon fill="#FFFFFF" filter="url(#f1owk82w75enh7)" points="22,24,117,24,124,47.6094,668,47.6094,668,990,22,990,22,24" style="stroke: #000000; stroke-width: 1.5;"/><line style="stroke: #000000; stroke-width: 1.5;" x1="22" x2="124" y1="47.6094" y2="47.6094"/><text fill="#000000" font-family="sans-serif" font-size="14" font-weight="bold" lengthAdjust="spacingAndGlyphs" textLength="89" x="26" y="40.5332">app.common</text><!--cluster app.window--><polygon fill="#FFFFFF" filter="url(#f1owk82w75enh7)" points="692,869,781,869,788,892.6094,830,892.6094,830,969,692,969,692,869" style="stroke: #000000; stroke-width: 1.5;"/><line style="stroke: #000000; stroke-width: 1.5;" x1="692" x2="788" y1="892.6094" y2="892.6094"/><text fill="#000000" font-family="sans-serif" font-size="14" font-weight="bold" lengthAdjust="spacingAndGlyphs" textLength="83" x="696" y="885.5332">app.window</text><!--class Entrypoint--><rect fill="#FEFECE" filter="url(#f1owk82w75enh7)" height="75.6719" id="Entrypoint" style="stroke: #A80036; stroke-width: 1.5;" width="151" x="203.5" y="60"/><ellipse cx="247.75" cy="76" fill="#ADD1B2" rx="11" ry="11" style="stroke: #A80036; stroke-width: 1.0;"/><path d="M250.5156,71.875 Q250.6719,71.6563 250.8594,71.5469 Q251.0469,71.4375 251.2656,71.4375 Q251.6406,71.4375 251.875,71.6953 Q252.1094,71.9531 252.1094,72.5625 L252.1094,74.0156 Q252.1094,74.625 251.875,74.8906 Q251.6406,75.1563 251.2656,75.1563 Q250.9219,75.1563 250.7188,74.9531 Q250.5156,74.7656 250.4063,74.25 Q250.3594,73.8906 250.1719,73.7031 Q249.8438,73.3281 249.2344,73.1094 Q248.625,72.8906 248,72.8906 Q247.2344,72.8906 246.6016,73.2188 Q245.9688,73.5469 245.4766,74.2969 Q244.9844,75.0469 244.9844,76.0781 L244.9844,77.1719 Q244.9844,78.4063 245.875,79.2266 Q246.7656,80.0469 248.3594,80.0469 Q249.2969,80.0469 249.9531,79.7969 Q250.3438,79.6406 250.7656,79.2031 Q251.0313,78.9375 251.1797,78.8594 Q251.3281,78.7813 251.5313,78.7813 Q251.8594,78.7813 252.1172,79.0391 Q252.375,79.2969 252.375,79.6406 Q252.375,79.9844 252.0313,80.3906 Q251.5313,80.9688 250.7344,81.2969 Q249.6563,81.75 248.3594,81.75 Q246.8438,81.75 245.6406,81.125 Q244.6563,80.625 243.9688,79.5547 Q243.2813,78.4844 243.2813,77.2031 L243.2813,76.0469 Q243.2813,74.7188 243.8984,73.5703 Q244.5156,72.4219 245.6094,71.8047 Q246.7031,71.1875 247.9375,71.1875 Q248.6719,71.1875 249.3203,71.3516 Q249.9688,71.5156 250.5156,71.875 Z "/><text fill="#000000" font-family="sans-serif" font-size="12" lengthAdjust="spacingAndGlyphs" textLength="54" x="268.25" y="80.9102">Entrypoint</text><line style="stroke: #A80036; stroke-width: 1.5;" x1="204.5" x2="353.5" y1="92" y2="92"/><rect fill="none" height="6" style="stroke: #C82930; stroke-width: 1.0;" width="6" x="211.5" y="101.418"/><text fill="#000000" font-family="sans-serif" font-size="11" lengthAdjust="spacingAndGlyphs" text-decoration="underline" textLength="125" x="223.5" y="107.4189">manager: WorkerManager</text><line style="stroke: #000000; stroke-width: 1.0;" x1="223.5" x2="348.5" y1="109.4189" y2="109.4189"/><line style="stroke: #A80036; stroke-width: 1.5;" x1="204.5" x2="353.5" y1="113.8359" y2="113.8359"/><ellipse cx="214.5" cy="126.2539" fill="#84BE84" rx="3" ry="3" style="stroke: #038048; stroke-width: 1.0;"/><text fill="#000000" font-family="sans-serif" font-size="11" lengthAdjust="spacingAndGlyphs" text-decoration="underline" textLength="114" x="223.5" y="129.2549">void Main(args: string[])</text><line style="stroke: #000000; stroke-width: 1.0;" x1="223.5" x2="337.5" y1="131.2549" y2="131.2549"/><!--class WorkerTypeRegister--><rect fill="#FEFECE" filter="url(#f1owk82w75enh7)" height="70.0234" id="WorkerTypeRegister" style="stroke: #A80036; stroke-width: 1.5;" width="241" x="38.5" y="258.5"/><ellipse cx="98.75" cy="278.5938" fill="#ADD1B2" rx="11" ry="11" style="stroke: #A80036; stroke-width: 1.0;"/><path d="M101.5156,274.4688 Q101.6719,274.25 101.8594,274.1406 Q102.0469,274.0313 102.2656,274.0313 Q102.6406,274.0313 102.875,274.2891 Q103.1094,274.5469 103.1094,275.1563 L103.1094,276.6094 Q103.1094,277.2188 102.875,277.4844 Q102.6406,277.75 102.2656,277.75 Q101.9219,277.75 101.7188,277.5469 Q101.5156,277.3594 101.4063,276.8438 Q101.3594,276.4844 101.1719,276.2969 Q100.8438,275.9219 100.2344,275.7031 Q99.625,275.4844 99,275.4844 Q98.2344,275.4844 97.6016,275.8125 Q96.9688,276.1406 96.4766,276.8906 Q95.9844,277.6406 95.9844,278.6719 L95.9844,279.7656 Q95.9844,281 96.875,281.8203 Q97.7656,282.6406 99.3594,282.6406 Q100.2969,282.6406 100.9531,282.3906 Q101.3438,282.2344 101.7656,281.7969 Q102.0313,281.5313 102.1797,281.4531 Q102.3281,281.375 102.5313,281.375 Q102.8594,281.375 103.1172,281.6328 Q103.375,281.8906 103.375,282.2344 Q103.375,282.5781 103.0313,282.9844 Q102.5313,283.5625 101.7344,283.8906 Q100.6563,284.3438 99.3594,284.3438 Q97.8438,284.3438 96.6406,283.7188 Q95.6563,283.2188 94.9688,282.1484 Q94.2813,281.0781 94.2813,279.7969 L94.2813,278.6406 Q94.2813,277.3125 94.8984,276.1641 Q95.5156,275.0156 96.6094,274.3984 Q97.7031,273.7813 98.9375,273.7813 Q99.6719,273.7813 100.3203,273.9453 Q100.9688,274.1094 101.5156,274.4688 Z "/><text fill="#000000" font-family="sans-serif" font-size="12" font-style="italic" lengthAdjust="spacingAndGlyphs" textLength="42" x="154.25" y="275.957">«static»</text><text fill="#000000" font-family="sans-serif" font-size="12" lengthAdjust="spacingAndGlyphs" textLength="112" x="119.25" y="291.0508">WorkerTypeRegister</text><line style="stroke: #A80036; stroke-width: 1.5;" x1="39.5" x2="278.5" y1="298.6875" y2="298.6875"/><line style="stroke: #A80036; stroke-width: 1.5;" x1="39.5" x2="278.5" y1="306.6875" y2="306.6875"/><ellipse cx="49.5" cy="319.1055" fill="#84BE84" rx="3" ry="3" style="stroke: #038048; stroke-width: 1.0;"/><text fill="#000000" font-family="sans-serif" font-size="11" lengthAdjust="spacingAndGlyphs" textLength="215" x="58.5" y="322.1064">int Register(register: Directory&lt;Long, Type&gt;)</text><!--class WorkerManager--><rect fill="#FEFECE" filter="url(#f1owk82w75enh7)" height="158.6875" id="WorkerManager" style="stroke: #A80036; stroke-width: 1.5;" width="337" x="314.5" y="214"/><ellipse cx="435.25" cy="230" fill="#ADD1B2" rx="11" ry="11" style="stroke: #A80036; stroke-width: 1.0;"/><path d="M438.0156,225.875 Q438.1719,225.6563 438.3594,225.5469 Q438.5469,225.4375 438.7656,225.4375 Q439.1406,225.4375 439.375,225.6953 Q439.6094,225.9531 439.6094,226.5625 L439.6094,228.0156 Q439.6094,228.625 439.375,228.8906 Q439.1406,229.1563 438.7656,229.1563 Q438.4219,229.1563 438.2188,228.9531 Q438.0156,228.7656 437.9063,228.25 Q437.8594,227.8906 437.6719,227.7031 Q437.3438,227.3281 436.7344,227.1094 Q436.125,226.8906 435.5,226.8906 Q434.7344,226.8906 434.1016,227.2188 Q433.4688,227.5469 432.9766,228.2969 Q432.4844,229.0469 432.4844,230.0781 L432.4844,231.1719 Q432.4844,232.4063 433.375,233.2266 Q434.2656,234.0469 435.8594,234.0469 Q436.7969,234.0469 437.4531,233.7969 Q437.8438,233.6406 438.2656,233.2031 Q438.5313,232.9375 438.6797,232.8594 Q438.8281,232.7813 439.0313,232.7813 Q439.3594,232.7813 439.6172,233.0391 Q439.875,233.2969 439.875,233.6406 Q439.875,233.9844 439.5313,234.3906 Q439.0313,234.9688 438.2344,235.2969 Q437.1563,235.75 435.8594,235.75 Q434.3438,235.75 433.1406,235.125 Q432.1563,234.625 431.4688,233.5547 Q430.7813,232.4844 430.7813,231.2031 L430.7813,230.0469 Q430.7813,228.7188 431.3984,227.5703 Q432.0156,226.4219 433.1094,225.8047 Q434.2031,225.1875 435.4375,225.1875 Q436.1719,225.1875 436.8203,225.3516 Q437.4688,225.5156 438.0156,225.875 Z "/><text fill="#000000" font-family="sans-serif" font-size="12" lengthAdjust="spacingAndGlyphs" textLength="87" x="455.75" y="234.9102">WorkerManager</text><line style="stroke: #A80036; stroke-width: 1.5;" x1="315.5" x2="650.5" y1="246" y2="246"/><rect fill="none" height="6" style="stroke: #C82930; stroke-width: 1.0;" width="6" x="322.5" y="255.418"/><text fill="#000000" font-family="sans-serif" font-size="11" lengthAdjust="spacingAndGlyphs" textLength="149" x="334.5" y="261.4189">variety: Directory&lt;Long, Type&gt;</text><rect fill="none" height="6" style="stroke: #C82930; stroke-width: 1.0;" width="6" x="322.5" y="269.2539"/><text fill="#000000" font-family="sans-serif" font-size="11" lengthAdjust="spacingAndGlyphs" textLength="96" x="334.5" y="275.2549">storage: String {file}</text><rect fill="none" height="6" style="stroke: #C82930; stroke-width: 1.0;" width="6" x="322.5" y="283.0898"/><text fill="#000000" font-family="sans-serif" font-size="11" lengthAdjust="spacingAndGlyphs" textLength="166" x="334.5" y="289.0908">workers: Directory&lt;Guid, Worker&gt;</text><line style="stroke: #A80036; stroke-width: 1.5;" x1="315.5" x2="650.5" y1="295.5078" y2="295.5078"/><ellipse cx="325.5" cy="307.9258" fill="#84BE84" rx="3" ry="3" style="stroke: #038048; stroke-width: 1.0;"/><text fill="#000000" font-family="sans-serif" font-size="11" lengthAdjust="spacingAndGlyphs" textLength="311" x="334.5" y="310.9268">WorkerManager(variety: Directory&lt;Long, Type&gt;, storage: String)</text><text fill="#000000" font-family="sans-serif" font-size="11" lengthAdjust="spacingAndGlyphs" textLength="0" x="337.5" y="324.7627"/><ellipse cx="325.5" cy="335.5977" fill="#84BE84" rx="3" ry="3" style="stroke: #038048; stroke-width: 1.0;"/><text fill="#000000" font-family="sans-serif" font-size="11" lengthAdjust="spacingAndGlyphs" textLength="95" x="334.5" y="338.5986">bool StartWorkers()</text><ellipse cx="325.5" cy="349.4336" fill="#84BE84" rx="3" ry="3" style="stroke: #038048; stroke-width: 1.0;"/><text fill="#000000" font-family="sans-serif" font-size="11" lengthAdjust="spacingAndGlyphs" textLength="99" x="334.5" y="352.4346">bool AbortWorkers()</text><ellipse cx="325.5" cy="363.2695" fill="#84BE84" rx="3" ry="3" style="stroke: #038048; stroke-width: 1.0;"/><text fill="#000000" font-family="sans-serif" font-size="11" lengthAdjust="spacingAndGlyphs" textLength="149" x="334.5" y="366.2705">Worker CreateWorker(id: Guid)</text><!--class Worker--><rect fill="#FEFECE" filter="url(#f1owk82w75enh7)" height="131.0156" id="Worker" style="stroke: #A80036; stroke-width: 1.5;" width="269" x="314.5" y="451"/><ellipse cx="424.75" cy="467" fill="#A9DCDF" rx="11" ry="11" style="stroke: #A80036; stroke-width: 1.0;"/><path d="M426.9375,468.7656 L422.7969,468.7656 L422.375,469.7969 L422.7969,469.7969 Q423.4063,469.7969 423.6719,470.0313 Q423.9375,470.2656 423.9375,470.6563 Q423.9375,471.0313 423.6719,471.2656 Q423.4063,471.5 422.7969,471.5 L420.5,471.5 Q419.8906,471.5 419.6328,471.2656 Q419.375,471.0313 419.375,470.6406 Q419.375,470.2656 419.6484,470.0234 Q419.9219,469.7813 420.5469,469.7969 L423.2188,463.1406 L422.1094,463.1406 Q421.5,463.1406 421.2344,462.9063 Q420.9688,462.6719 420.9688,462.2813 Q420.9688,461.9063 421.2344,461.6719 Q421.5,461.4375 422.1094,461.4375 L425.7813,461.4375 L429.1719,469.7969 Q429.7656,469.7969 429.9531,469.9375 Q430.3438,470.2031 430.3438,470.6563 Q430.3438,471.0313 430.0859,471.2656 Q429.8281,471.5 429.2188,471.5 L426.9219,471.5 Q426.3125,471.5 426.0469,471.2656 Q425.7813,471.0313 425.7813,470.6406 Q425.7813,470.2656 426.0469,470.0313 Q426.3125,469.7969 426.9219,469.7969 L427.3438,469.7969 L426.9375,468.7656 Z M426.2188,467.0625 L424.8594,463.6875 L423.4844,467.0625 L426.2188,467.0625 Z "/><text fill="#000000" font-family="sans-serif" font-size="12" font-style="italic" lengthAdjust="spacingAndGlyphs" textLength="40" x="445.25" y="471.9102">Worker</text><line style="stroke: #A80036; stroke-width: 1.5;" x1="315.5" x2="582.5" y1="483" y2="483"/><polygon fill="none" points="325.5,490.418,329.5,494.418,325.5,498.418,321.5,494.418" style="stroke: #B38D22; stroke-width: 1.0;"/><text fill="#000000" font-family="sans-serif" font-size="11" lengthAdjust="spacingAndGlyphs" textLength="125" x="334.5" y="498.4189">manager: WorkerManager</text><rect fill="none" height="6" style="stroke: #C82930; stroke-width: 1.0;" width="6" x="322.5" y="506.2539"/><text fill="#000000" font-family="sans-serif" font-size="11" lengthAdjust="spacingAndGlyphs" textLength="69" x="334.5" y="512.2549">identifier: Guid</text><line style="stroke: #A80036; stroke-width: 1.5;" x1="315.5" x2="582.5" y1="518.6719" y2="518.6719"/><polygon fill="#FFFF44" points="325.5,526.0898,329.5,530.0898,325.5,534.0898,321.5,530.0898" style="stroke: #B38D22; stroke-width: 1.0;"/><text fill="#000000" font-family="sans-serif" font-size="11" lengthAdjust="spacingAndGlyphs" textLength="243" x="334.5" y="534.0908">Worker(identifier: Guid, manager: WorkerManager)</text><text fill="#000000" font-family="sans-serif" font-size="11" lengthAdjust="spacingAndGlyphs" textLength="0" x="337.5" y="547.9268"/><ellipse cx="325.5" cy="558.7617" fill="#84BE84" rx="3" ry="3" style="stroke: #038048; stroke-width: 1.0;"/><text fill="#000000" font-family="sans-serif" font-size="11" font-style="italic" lengthAdjust="spacingAndGlyphs" textLength="152" x="334.5" y="561.7627">bool Start(reader: TextReader)</text><ellipse cx="325.5" cy="572.5977" fill="#84BE84" rx="3" ry="3" style="stroke: #038048; stroke-width: 1.0;"/><text fill="#000000" font-family="sans-serif" font-size="11" font-style="italic" lengthAdjust="spacingAndGlyphs" textLength="146" x="334.5" y="575.5986">bool Abort(writer: TextWriter)</text><!--class BackupWorker--><rect fill="#FEFECE" filter="url(#f1owk82w75enh7)" height="144.8516" id="BackupWorker" style="stroke: #A80036; stroke-width: 1.5;" width="447" x="204.5" y="660"/><ellipse cx="383.75" cy="676" fill="#ADD1B2" rx="11" ry="11" style="stroke: #A80036; stroke-width: 1.0;"/><path d="M386.5156,671.875 Q386.6719,671.6563 386.8594,671.5469 Q387.0469,671.4375 387.2656,671.4375 Q387.6406,671.4375 387.875,671.6953 Q388.1094,671.9531 388.1094,672.5625 L388.1094,674.0156 Q388.1094,674.625 387.875,674.8906 Q387.6406,675.1563 387.2656,675.1563 Q386.9219,675.1563 386.7188,674.9531 Q386.5156,674.7656 386.4063,674.25 Q386.3594,673.8906 386.1719,673.7031 Q385.8438,673.3281 385.2344,673.1094 Q384.625,672.8906 384,672.8906 Q383.2344,672.8906 382.6016,673.2188 Q381.9688,673.5469 381.4766,674.2969 Q380.9844,675.0469 380.9844,676.0781 L380.9844,677.1719 Q380.9844,678.4063 381.875,679.2266 Q382.7656,680.0469 384.3594,680.0469 Q385.2969,680.0469 385.9531,679.7969 Q386.3438,679.6406 386.7656,679.2031 Q387.0313,678.9375 387.1797,678.8594 Q387.3281,678.7813 387.5313,678.7813 Q387.8594,678.7813 388.1172,679.0391 Q388.375,679.2969 388.375,679.6406 Q388.375,679.9844 388.0313,680.3906 Q387.5313,680.9688 386.7344,681.2969 Q385.6563,681.75 384.3594,681.75 Q382.8438,681.75 381.6406,681.125 Q380.6563,680.625 379.9688,679.5547 Q379.2813,678.4844 379.2813,677.2031 L379.2813,676.0469 Q379.2813,674.7188 379.8984,673.5703 Q380.5156,672.4219 381.6094,671.8047 Q382.7031,671.1875 383.9375,671.1875 Q384.6719,671.1875 385.3203,671.3516 Q385.9688,671.5156 386.5156,671.875 Z "/><text fill="#000000" font-family="sans-serif" font-size="12" lengthAdjust="spacingAndGlyphs" textLength="80" x="404.25" y="680.9102">BackupWorker</text><line style="stroke: #A80036; stroke-width: 1.5;" x1="205.5" x2="650.5" y1="692" y2="692"/><rect fill="none" height="6" style="stroke: #C82930; stroke-width: 1.0;" width="6" x="212.5" y="701.418"/><text fill="#000000" font-family="sans-serif" font-size="11" lengthAdjust="spacingAndGlyphs" textLength="145" x="224.5" y="707.4189">source: String {File, Directory}</text><rect fill="none" height="6" style="stroke: #C82930; stroke-width: 1.0;" width="6" x="212.5" y="715.2539"/><text fill="#000000" font-family="sans-serif" font-size="11" lengthAdjust="spacingAndGlyphs" textLength="139" x="224.5" y="721.2549">target: String {File, Directory}</text><rect fill="none" height="6" style="stroke: #C82930; stroke-width: 1.0;" width="6" x="212.5" y="729.0898"/><text fill="#000000" font-family="sans-serif" font-size="11" lengthAdjust="spacingAndGlyphs" textLength="112" x="224.5" y="735.0908">observer: FileObserver</text><line style="stroke: #A80036; stroke-width: 1.5;" x1="205.5" x2="650.5" y1="741.5078" y2="741.5078"/><ellipse cx="215.5" cy="753.9258" fill="#84BE84" rx="3" ry="3" style="stroke: #038048; stroke-width: 1.0;"/><text fill="#000000" font-family="sans-serif" font-size="11" lengthAdjust="spacingAndGlyphs" textLength="421" x="224.5" y="756.9268">BackupWorker(identifier: Guid, manager: WorkerManager, source: String, target: String)</text><text fill="#000000" font-family="sans-serif" font-size="11" lengthAdjust="spacingAndGlyphs" textLength="0" x="227.5" y="770.7627"/><ellipse cx="215.5" cy="781.5977" fill="#84BE84" rx="3" ry="3" style="stroke: #038048; stroke-width: 1.0;"/><text fill="#000000" font-family="sans-serif" font-size="11" lengthAdjust="spacingAndGlyphs" textLength="145" x="224.5" y="784.5986">bool Start(TextReader reader)</text><ellipse cx="215.5" cy="795.4336" fill="#84BE84" rx="3" ry="3" style="stroke: #038048; stroke-width: 1.0;"/><text fill="#000000" font-family="sans-serif" font-size="11" lengthAdjust="spacingAndGlyphs" textLength="140" x="224.5" y="798.4346">bool Abort(TextWriter writer)</text><!--class FileObserver--><rect fill="#FEFECE" filter="url(#f1owk82w75enh7)" height="89.5078" id="FileObserver" style="stroke: #A80036; stroke-width: 1.5;" width="165" x="345.5" y="884"/><ellipse cx="388.85" cy="900" fill="#ADD1B2" rx="11" ry="11" style="stroke: #A80036; stroke-width: 1.0;"/><path d="M391.6156,895.875 Q391.7719,895.6563 391.9594,895.5469 Q392.1469,895.4375 392.3656,895.4375 Q392.7406,895.4375 392.975,895.6953 Q393.2094,895.9531 393.2094,896.5625 L393.2094,898.0156 Q393.2094,898.625 392.975,898.8906 Q392.7406,899.1563 392.3656,899.1563 Q392.0219,899.1563 391.8188,898.9531 Q391.6156,898.7656 391.5063,898.25 Q391.4594,897.8906 391.2719,897.7031 Q390.9438,897.3281 390.3344,897.1094 Q389.725,896.8906 389.1,896.8906 Q388.3344,896.8906 387.7016,897.2188 Q387.0688,897.5469 386.5766,898.2969 Q386.0844,899.0469 386.0844,900.0781 L386.0844,901.1719 Q386.0844,902.4063 386.975,903.2266 Q387.8656,904.0469 389.4594,904.0469 Q390.3969,904.0469 391.0531,903.7969 Q391.4438,903.6406 391.8656,903.2031 Q392.1313,902.9375 392.2797,902.8594 Q392.4281,902.7813 392.6313,902.7813 Q392.9594,902.7813 393.2172,903.0391 Q393.475,903.2969 393.475,903.6406 Q393.475,903.9844 393.1313,904.3906 Q392.6313,904.9688 391.8344,905.2969 Q390.7563,905.75 389.4594,905.75 Q387.9438,905.75 386.7406,905.125 Q385.7563,904.625 385.0688,903.5547 Q384.3813,902.4844 384.3813,901.2031 L384.3813,900.0469 Q384.3813,898.7188 384.9984,897.5703 Q385.6156,896.4219 386.7094,895.8047 Q387.8031,895.1875 389.0375,895.1875 Q389.7719,895.1875 390.4203,895.3516 Q391.0688,895.5156 391.6156,895.875 Z "/><text fill="#000000" font-family="sans-serif" font-size="12" lengthAdjust="spacingAndGlyphs" textLength="70" x="409.15" y="904.9102">FileObserver</text><line style="stroke: #A80036; stroke-width: 1.5;" x1="346.5" x2="509.5" y1="916" y2="916"/><ellipse cx="356.5" cy="928.418" fill="none" rx="3" ry="3" style="stroke: #038048; stroke-width: 1.0;"/><text fill="#000000" font-family="sans-serif" font-size="11" lengthAdjust="spacingAndGlyphs" textLength="136" x="365.5" y="931.4189">«get» Changes: List&lt;String&gt;</text><rect fill="none" height="6" style="stroke: #C82930; stroke-width: 1.0;" width="6" x="353.5" y="939.2539"/><text fill="#000000" font-family="sans-serif" font-size="11" lengthAdjust="spacingAndGlyphs" textLength="139" x="365.5" y="945.2549">target: String {File, Directory}</text><line style="stroke: #A80036; stroke-width: 1.5;" x1="346.5" x2="509.5" y1="951.6719" y2="951.6719"/><ellipse cx="356.5" cy="964.0898" fill="#84BE84" rx="3" ry="3" style="stroke: #038048; stroke-width: 1.0;"/><text fill="#000000" font-family="sans-serif" font-size="11" lengthAdjust="spacingAndGlyphs" textLength="117" x="365.5" y="967.0908">FileObserver(file: string)</text><!--class UserInterface--><rect fill="#FEFECE" filter="url(#f1owk82w75enh7)" height="48" id="UserInterface" style="stroke: #A80036; stroke-width: 1.5;" width="106" x="708" y="905"/><ellipse cx="723" cy="921" fill="#ADD1B2" rx="11" ry="11" style="stroke: #A80036; stroke-width: 1.0;"/><path d="M725.7656,916.875 Q725.9219,916.6563 726.1094,916.5469 Q726.2969,916.4375 726.5156,916.4375 Q726.8906,916.4375 727.125,916.6953 Q727.3594,916.9531 727.3594,917.5625 L727.3594,919.0156 Q727.3594,919.625 727.125,919.8906 Q726.8906,920.1563 726.5156,920.1563 Q726.1719,920.1563 725.9688,919.9531 Q725.7656,919.7656 725.6563,919.25 Q725.6094,918.8906 725.4219,918.7031 Q725.0938,918.3281 724.4844,918.1094 Q723.875,917.8906 723.25,917.8906 Q722.4844,917.8906 721.8516,918.2188 Q721.2188,918.5469 720.7266,919.2969 Q720.2344,920.0469 720.2344,921.0781 L720.2344,922.1719 Q720.2344,923.4063 721.125,924.2266 Q722.0156,925.0469 723.6094,925.0469 Q724.5469,925.0469 725.2031,924.7969 Q725.5938,924.6406 726.0156,924.2031 Q726.2813,923.9375 726.4297,923.8594 Q726.5781,923.7813 726.7813,923.7813 Q727.1094,923.7813 727.3672,924.0391 Q727.625,924.2969 727.625,924.6406 Q727.625,924.9844 727.2813,925.3906 Q726.7813,925.9688 725.9844,926.2969 Q724.9063,926.75 723.6094,926.75 Q722.0938,926.75 720.8906,926.125 Q719.9063,925.625 719.2188,924.5547 Q718.5313,923.4844 718.5313,922.2031 L718.5313,921.0469 Q718.5313,919.7188 719.1484,918.5703 Q719.7656,917.4219 720.8594,916.8047 Q721.9531,916.1875 723.1875,916.1875 Q723.9219,916.1875 724.5703,916.3516 Q725.2188,916.5156 725.7656,916.875 Z "/><text fill="#000000" font-family="sans-serif" font-size="12" lengthAdjust="spacingAndGlyphs" textLength="74" x="737" y="925.9102">UserInterface</text><line style="stroke: #A80036; stroke-width: 1.5;" x1="709" x2="813" y1="937" y2="937"/><line style="stroke: #A80036; stroke-width: 1.5;" x1="709" x2="813" y1="945" y2="945"/><!--link Worker to BackupWorker--><path d="M440.667,602.419 C438.801,621.433 436.84,641.421 435.033,659.835 " fill="none" id="Worker-BackupWorker" style="stroke: #A80036; stroke-width: 1.0;"/><polygon fill="none" points="433.722,601.509,442.642,582.288,447.656,602.876,433.722,601.509" style="stroke: #A80036; stroke-width: 1.0;"/><!--link Entrypoint to WorkerTypeRegister--><path d="M241.402,136.318 C233.12,145.578 224.801,155.787 218,166 C198.524,195.247 182.183,231.946 171.673,258.272 " fill="none" id="Entrypoint-WorkerTypeRegister" style="stroke: #A80036; stroke-width: 1.0;"/><text fill="#000000" font-family="sans-serif" font-size="13" lengthAdjust="spacingAndGlyphs" textLength="143" x="219" y="180.4951">registers worker varieties</text><polygon fill="#000000" points="286,189.3516,289,195.3516,292,189.3516,286,189.3516" style="stroke: #000000; stroke-width: 1.0;"/><text fill="#000000" font-family="sans-serif" font-size="13" lengthAdjust="spacingAndGlyphs" textLength="7" x="227.852" y="157.2492">1</text><text fill="#000000" font-family="sans-serif" font-size="13" lengthAdjust="spacingAndGlyphs" textLength="7" x="166.4216" y="247.5581">1</text><!--link Entrypoint to WorkerManager--><path d="M341.276,136.038 C354.62,145.123 368.232,155.328 380,166 C395.84,180.364 411.295,197.258 425.215,213.941 " fill="none" id="Entrypoint-WorkerManager" style="stroke: #A80036; stroke-width: 1.0;"/><text fill="#000000" font-family="sans-serif" font-size="13" lengthAdjust="spacingAndGlyphs" textLength="197" x="396" y="180.4951">starts with varieties and data input</text><polygon fill="#000000" points="596,173.6758,602,176.6758,596,179.6758,596,173.6758" style="stroke: #000000; stroke-width: 1.0;"/><text fill="#000000" font-family="sans-serif" font-size="13" lengthAdjust="spacingAndGlyphs" textLength="7" x="344.0108" y="157.2144">1</text><text fill="#000000" font-family="sans-serif" font-size="13" lengthAdjust="spacingAndGlyphs" textLength="7" x="412.3738" y="203.1223">1</text><!--link WorkerManager to Worker--><path d="M470.917,373.039 C467.004,398.472 462.711,426.377 458.97,450.698 " fill="none" id="WorkerManager-Worker" style="stroke: #A80036; stroke-width: 1.0;"/><text fill="#000000" font-family="sans-serif" font-size="13" lengthAdjust="spacingAndGlyphs" textLength="53" x="467" y="417.4951">manages</text><polygon fill="#000000" points="489,426.3516,492,432.3516,495,426.3516,489,426.3516" style="stroke: #000000; stroke-width: 1.0;"/><text fill="#000000" font-family="sans-serif" font-size="13" lengthAdjust="spacingAndGlyphs" textLength="7" x="462.5778" y="394.0855">1</text><text fill="#000000" font-family="sans-serif" font-size="13" lengthAdjust="spacingAndGlyphs" textLength="7" x="452.6777" y="440.1394">n</text><!--link BackupWorker to FileObserver--><path d="M428,805.096 C428,831.525 428,860.677 428,883.954 " fill="none" id="BackupWorker-FileObserver" style="stroke: #A80036; stroke-width: 1.0;"/><text fill="#000000" font-family="sans-serif" font-size="13" lengthAdjust="spacingAndGlyphs" textLength="109" x="429" y="849.4951">keeps track of files</text><polygon fill="#000000" points="479,858.3516,482,864.3516,485,858.3516,479,858.3516" style="stroke: #000000; stroke-width: 1.0;"/><text fill="#000000" font-family="sans-serif" font-size="13" lengthAdjust="spacingAndGlyphs" textLength="7" x="420.6664" y="826.2968">1</text><text fill="#000000" font-family="sans-serif" font-size="13" lengthAdjust="spacingAndGlyphs" textLength="7" x="420.4422" y="873.0621">1</text><!--link WorkerManager to UserInterface--><path d="M550.111,373.199 C568.322,397.126 586.885,424.206 601,451 C687.203,614.641 740.269,833.922 756.038,904.84 " fill="none" id="WorkerManager-UserInterface" style="stroke: #A80036; stroke-width: 1.0;"/><text fill="#000000" font-family="sans-serif" font-size="13" lengthAdjust="spacingAndGlyphs" textLength="43" x="677" y="626.4951">storage</text><path d="M700.2647,721.5353 A10,10 0 0 0 713.7759 717.3581" fill="#FFFFFF" style="stroke: #A80036; stroke-width: 1.5;"/><ellipse cx="704.9318" cy="712.6911" fill="#FFFFFF" rx="6" ry="6" style="stroke: #A80036; stroke-width: 1.5;"/><!--
@startuml
page 1x2

package app.common {
    class Entrypoint {
        {static} -manager: WorkerManager 
        {static} +void Main(args: string[])
    }

    class WorkerTypeRegister <<static>> {
        +int Register(register: Directory<Long, Type>)
    }

    class WorkerManager {
        -variety: Directory<Long, Type>
        -storage: String {file}
        -workers: Directory<Guid, Worker>

        +WorkerManager(variety: Directory<Long, Type>, storage: String)
        
        +bool StartWorkers()
        +bool AbortWorkers()
        +Worker CreateWorker(id: Guid)
    }

    abstract class Worker {
        #manager: WorkerManager
        -identifier: Guid

        #Worker(identifier: Guid, manager: WorkerManager)

        {abstract} +bool Start(reader: TextReader)
        {abstract} +bool Abort(writer: TextWriter)
    }

    class BackupWorker extends Worker {
        -source: String {File, Directory}
        -target: String {File, Directory}
        -observer: FileObserver

        +BackupWorker(identifier: Guid, manager: WorkerManager, source: String, target: String)

        +bool Start(TextReader reader)
        +bool Abort(TextWriter writer)
    }

    class FileObserver {
        +<<get>> Changes: List<String>
        -target: String {File, Directory}

        +FileObserver(file: string)
    }
}

package app.window {
   class UserInterface {
   }
}

Entrypoint "1" - - "1" WorkerTypeRegister :  registers worker varieties >
Entrypoint "1" - - "1" WorkerManager : starts with varieties and data input >
WorkerManager "1" - - "n" Worker : manages >
BackupWorker "1" - - "1" FileObserver : keeps track of files >

WorkerManager - -0)- - UserInterface : storage

@enduml

PlantUML version 1.2019.03(Sun Mar 10 12:04:44 CET 2019)
(GPL source distribution)
Java Runtime: OpenJDK Runtime Environment
JVM: OpenJDK 64-Bit Server VM
Java Version: 1.8.0_212-b03
Operating System: Windows 10
OS Version: 10.0
Default Encoding: Cp1252
Language: de
Country: DE
--></g></svg>